# AST/ASF file generated using VICON BodyLanguage
# -----------------------------------------------
:version 1.10
:name VICON
:units
  mass 1.0
  length 0.45
  angle deg
:documentation
   .ast/.asf automatically generated from VICON data using
   VICON BodyBuilder and BodyLanguage model FoxedUp or BRILLIANT.MOD
:root
   order TX TY TZ RX RY RZ
   axis XYZ
   position 0 0 0  
   orientation 0 0 0 
:bonedata
  begin
     id 1 
     name lhipjoint
     direction 0.711131 -0.61297 0.344326 
     length 2.29162 
     axis 0 0 0  XYZ
  end
  begin
     id 2 
     name lfemur
     direction 0.34202 -0.939693 0  
     length 6.71424  
     axis 0 0 20  XYZ
    dof rx ry rz
    limits (-160.0 20.0)
           (-70.0 70.0)
           (-60.0 70.0)
  end
  begin
     id 3 
     name ltibia
     direction 0.34202 -0.939693 0   
     length 6.7087   
     axis 0 0 20   XYZ
    dof rx
    limits (-10.0 170.0)
  end
  begin
     id 4 
     name lfoot
     direction 0.0230374 -0.0632947 0.997729   
     length 1.56743   
     axis -90 7.62852e-016 20   XYZ
    dof rx rz
    limits (-45.0 90.0)
           (-70.0 20.0)
  end
  begin
     id 5 
     name ltoes
     direction 1.53585e-011 -4.21885e-011 1   
     length 0.802914   
     axis -90 7.62852e-016 20   XYZ
    dof rx
    limits (-90.0 20.0)
  end
  begin
     id 6 
     name rhipjoint
     direction -0.733192 -0.592884 0.333043   
     length 2.36925  
     axis 0 0 0  XYZ 
  end
  begin
     id 7 
     name rfemur
     direction -0.34202 -0.939693 0   
     length 6.67027   
     axis 0 0 -20   XYZ
    dof rx ry rz
    limits (-160.0 20.0)
           (-70.0 70.0)
           (-70.0 60.0)
  end
  begin
     id 8 
     name rtibia
     direction -0.34202 -0.939693 0   
     length 6.6862   
     axis 0 0 -20   XYZ
    dof rx
    limits (-10.0 170.0)
 end
 begin
     id 9 
     name rfoot
     direction -0.0949739 -0.260939 0.960672   
     length 1.67698  
     axis -90 -7.62852e-016 -20   XYZ
    dof rx rz
    limits (-45.0 90.0)
           (-20.0 70.0)
  end
  begin
     id 10 
     name rtoes
     direction -1.5353e-011 -4.21868e-011 1   
     length 0.846298   
     axis -90 -7.62852e-016 -20   XYZ
    dof rx
    limits (-90.0 20.0)
  end
  begin
     id 11 
     name lowerback
     direction -0.0206828 0.999785 -0.00109866   
     length 2.04382   
     axis 0 0 0   XYZ
    dof rx ry rz
    limits (-20.0 45.0)
           (-30.0 30.0)
           (-30.0 30.0)
  end
  begin
     id 12 
     name upperback
     direction -0.0105003 0.999727 -0.0208904   
     length 2.04538   
     axis 0 0 0   XYZ
    dof rx ry rz
    limits (-20.0 45.0)
           (-30.0 30.0)
           (-30.0 30.0)
  end
  begin
     id 13 
     name thorax
     direction -0.000416255 0.999808 -0.0196023   
     length 2.0399   
     axis 0 0 0   XYZ
    dof rx ry rz
    limits (-20.0 45.0)
           (-30.0 30.0)
           (-30.0 30.0)
  end
  begin
     id 14 
     name lowerneck
     direction 0.0627861 0.989205 0.13241   
     length 1.46207   
     axis 0 0 0   XYZ
    dof rx ry rz
    limits (-20.0 45.0)
           (-30.0 30.0)
           (-30.0 30.0)
  end
  begin
     id 15 
     name upperneck
     direction 0.00627179 0.994526 0.104303   
     length 1.41419   
     axis 0 0 0   XYZ
    dof rx ry rz
    limits (-20.0 45.0)
           (-30.0 30.0)
           (-30.0 30.0)
  end
  begin
     id 16
     name head
     direction -0.00443838 0.999688 0.0245968  
     length 1.50718  
     axis 0 0 0   XYZ
    dof rx ry rz
    limits (-20.0 45.0)
           (-30.0 30.0)
           (-30.0 30.0)
  end
  begin
     id 17 
     name lclavicle
     direction 0.758742 0.650995 -0.0227258  
     length 2.86888  
     axis 0 0 0   XYZ
    dof ry rz
    limits (-20.0 10.0)
           (0.0 20.0)
  end
  begin
     id 18 
     name lhumerus
     direction 1 -4.48962e-011 1.06664e-027   
     length 4.65776   
     axis -180 -30 -90   XYZ
    dof rx ry rz
    limits (-60.0 90.0)
           (-90.0 90.0)
           (-90.0 90.0)
  end
  begin
     id 19
     name lradius
     direction 1 -4.48968e-011 1.40404e-026   
     length 3.55539   
     axis -180 -30 -90   XYZ
    dof rx
    limits (-10.0 170.0)
  end
  begin
     id 20
     name lwrist
     direction 1 -4.48976e-011 3.32647e-026   
     length 1.77769   
     axis -2.20186e-014 90 90   XYZ
    dof ry
    limits (-180.0 0.0)
 end
  begin
     id 21 
     name lhand
     direction 1 -4.48982e-011 6.65293e-026   
     length 0.707264   
     axis -4.24514e-014 90 90   XYZ
    dof rx rz
    limits (-90.0 90.0)
           (-45.0 45.0)
  end
  begin
     id 22 
     name lfingers
     direction 1 -4.48966e-011 1.33059e-025   
     length 0.570215   
     axis -8.49028e-014 90 90   XYZ
    dof rx
    limits (0.0 90.0)
  end
  begin
     id 23
     name lthumb
     direction 0.707107 -6.3493e-011 0.707107   
     length 0.818718   
     axis -90 45 2.85299e-015   XYZ
    dof rx rz
    limits (-45.0 45.0)
           (-45.0 45.0)
  end
  begin
     id 24 
     name rclavicle
     direction -0.870343 0.482028 -0.100759   
     length 3.2251  
     axis 0 0 0   XYZ 
    dof ry rz
    limits (-10.0 20.0)
           (-20.0 0.0)
  end
  begin
     id 25 
     name rhumerus
     direction -1 -4.48974e-011 -9.45849e-028  
     length 4.71925   
     axis -180 30 90   XYZ
    dof rx ry rz
    limits (-90.0 60.0)
           (-90.0 90.0)
           (-90.0 90.0)
  end
  begin
     id 26 
     name rradius
     direction -1 -4.48965e-011 1.17607e-026   
     length 3.5699   
     axis -180 30 90   XYZ
    dof rx
    limits (-10.0 170.0)
  end
  begin
     id 27 
     name rwrist
     direction -1 -4.48968e-011 3.32647e-026   
     length 1.78495   
     axis -2.20186e-014 -90 -90   XYZ
    dof ry
    limits (-180.0 0.0)
  end
  begin
     id 28
     name rhand
     direction -1 -4.48995e-011 6.65293e-026   
     length 0.507757   
     axis -4.24514e-014 -90 -90   XYZ
    dof rx rz
    limits (-90.0 90.0)
           (-45.0 45.0)
  end
  begin
     id 29
     name rfingers
     direction -1 -4.48864e-011 1.33059e-025   
     length 0.409367   
     axis -8.49028e-014 -90 -90   XYZ
    dof rx
    limits (0.0 90.0)
  end
  begin
     id 30
     name rthumb
     direction -0.707107 -6.3494e-011 0.707107   
     length 0.587771   
     axis -90 -45 -2.85299e-015   XYZ
    dof rx rz
    limits (-45.0 45.0)
           (-45.0 45.0)
  end
:hierarchy
  begin
    root lhipjoint rhipjoint lowerback
    lhipjoint lfemur
    lfemur ltibia
    ltibia lfoot
    lfoot ltoes
    rhipjoint rfemur
    rfemur rtibia
    rtibia rfoot
    rfoot rtoes
    lowerback upperback
    upperback thorax
    thorax lowerneck lclavicle rclavicle
    lowerneck upperneck
    upperneck head
    lclavicle lhumerus
    lhumerus lradius
    lradius lwrist
    lwrist lhand lthumb
    lhand lfingers
    rclavicle rhumerus
    rhumerus rradius
    rradius rwrist
    rwrist rhand rthumb
    rhand rfingers
  end

#!OML:ASF E:\Steps\Project 1\Capture day 1\Session 2\Subject.ASF
:FULLY-SPECIFIED
:DEGREES
19
root 8.98525 16.2561 31.3096 -153.351 -0.478739 179.155
lowerback -31.3554 -1.31129 -5.33851
upperback -2.28034 -0.719021 -0.500636
thorax 13.8266 -1.01335 1.96174
lowerneck 0.448065 -2.95095 -1.38667
upperneck -10.5166 -4.07331 5.18589
head -3.33229 -2.37653 2.07749
rclavicle -4.96962e-017 1.94809e-014
rhumerus -25.8168 -17.2044 -85.217
rradius 20.8735
rwrist 6.15476
rhand -7.98219 -52.1543
rfingers 7.12502
rthumb 17.926 -81.3481
lclavicle -4.96962e-017 1.94809e-014
lhumerus -24.1211 -3.71481 88.5112
lradius 15.3898
lwrist -9.36811
lhand -21.9158 -11.4028
lfingers 7.12502
lthumb 4.49008 18.5296
rfemur -24.5936 8.30905 19.0102
rtibia 9.5309
rfoot -20.8518 -8.40528
rtoes -32.7569
lfemur -24.5167 -7.78668 -19.3998
ltibia 8.80752
lfoot -9.15837 3.98103
ltoes -38.7951
20
root 8.9864 16.2559 31.3105 -153.32 -0.459335 179.111
lowerback -31.3753 -1.29585 -5.39014
upperback -2.29341 -0.681491 -0.520348
thorax 13.8166 -1.00047 1.98257
lowerneck 0.457743 -2.96404 -1.39813
upperneck -10.544 -4.08984 5.22098
head -3.34222 -2.38691 2.09282
rclavicle 2.73329e-015 7.95139e-015
rhumerus -25.8127 -17.4864 -85.1237
rradius 20.7986
rwrist 6.50739
rhand -7.66832 -52.2027
rfingers 7.12502
rthumb 18.228 -81.3686
lclavicle 2.73329e-015 7.95139e-015
lhumerus -24.1584 -3.93486 88.5974
lradius 15.5097
lwrist -9.1691
lhand -21.9839 -10.8894
lfingers 7.12502
lthumb 4.4243 19.0444
rfemur -24.6525 8.36738 18.9367
rtibia 9.52503
rfoot -20.8343 -8.44403
rtoes -32.8296
lfemur -24.5618 -7.80106 -19.4392
ltibia 8.81243
lfoot -9.16336 3.91051
ltoes -38.4546
21
root 8.98627 16.2575 31.3072 -153.35 -0.517641 179.056
lowerback -31.3534 -1.31705 -5.43486
upperback -2.29329 -0.691639 -0.537751
thorax 13.8074 -1.00669 1.98414
lowerneck 0.486577 -2.9846 -1.38443
upperneck -10.5837 -4.11573 5.2595
head -3.36012 -2.40369 2.10608
rclavicle 4.22417e-015 -2.10712e-014
rhumerus -25.8245 -17.6538 -85.0626
rradius 20.7111
rwrist 6.72993
rhand -7.40215 -52.1976
rfingers 7.12502
rthumb 18.484 -81.3394
lclavicle 4.22417e-015 -2.10712e-014
lhumerus -24.1658 -3.81761 88.5286
lradius 15.4848
lwrist -9.19012
lhand -21.8318 -11.1586
lfingers 7.12502
lthumb 4.57123 18.7721
rfemur -24.5555 8.33814 18.8854
rtibia 9.45699
rfoot -20.8197 -8.47019
rtoes -32.5813
lfemur -24.5225 -7.71148 -19.5342
ltibia 8.85375
lfoot -9.19112 3.75314
ltoes -38.9378
22
root 8.98603 16.2587 31.304 -153.359 -0.553056 178.997
lowerback -31.357 -1.33871 -5.46904
upperback -2.3103 -0.709536 -0.559619
thorax 13.7897 -1.01729 1.97128
lowerneck 0.519718 -2.96898 -1.37599
upperneck -10.5581 -4.0917 5.25339
head -3.35865 -2.39029 2.10208
rclavicle 2.78299e-015 -2.14687e-014
rhumerus -25.9012 -17.4656 -85.1138
rradius 20.7466
rwrist 6.54353
rhand -7.47222 -52.3977
rfingers 7.12502
rthumb 18.4166 -81.5459
lclavicle 2.78299e-015 -2.14687e-014
lhumerus -24.2208 -3.78327 88.4891
lradius 15.4437
lwrist -9.3341
lhand -22.2831 -11.2757
lfingers 7.12502
lthumb 4.13537 18.6639
rfemur -24.4957 8.22755 18.8454
rtibia 9.41442
rfoot -20.7865 -8.43665
rtoes -32.4881
lfemur -24.5016 -7.61157 -19.642
ltibia 8.88518
lfoot -9.19626 3.63502
ltoes -39.4186
23
root 8.98679 16.2577 31.3033 -153.321 -0.579859 179.045
lowerback -31.4385 -1.33804 -5.41699
upperback -2.30592 -0.72638 -0.540018
thorax 13.8319 -1.02404 1.95594
lowerneck 0.495435 -2.94103 -1.38739
upperneck -10.5166 -4.05429 5.23315
head -3.34123 -2.36863 2.09434
rclavicle 8.49804e-015 8.74653e-015
rhumerus -25.8916 -17.3548 -85.1479
rradius 20.7581
rwrist 6.39443
rhand -7.49309 -52.4097
rfingers 7.12502
rthumb 18.3965 -81.5598
lclavicle 8.49804e-015 8.74653e-015
lhumerus -24.1526 -3.34927 88.3081
lradius 15.3856
lwrist -9.3736
lhand -21.3183 -11.3273
lfingers 7.12502
lthumb 5.06706 18.5921
rfemur -24.5317 8.19853 18.9177
rtibia 9.43062
rfoot -20.8116 -8.40639
rtoes -32.6899
lfemur -24.5329 -7.79812 -19.5212
ltibia 8.86872
lfoot -9.19331 3.78387
ltoes -38.9874
24
root 8.98744 16.2568 31.3037 -153.3 -0.620764 179.126
lowerback -31.4782 -1.32965 -5.34885
upperback -2.29869 -0.740593 -0.502085
thorax 13.8597 -1.02741 1.95403
lowerneck 0.47861 -2.95105 -1.41841
upperneck -10.5218 -4.06848 5.25056
head -3.33849 -2.37553 2.10566
rclavicle -2.38542e-015 -2.94201e-014
rhumerus -25.8532 -17.3542 -85.1503
rradius 20.7623
rwrist 6.27557
rhand -7.73404 -52.237
rfingers 7.12502
rthumb 18.1647 -81.4089
lclavicle -2.38542e-015 -2.94201e-014
lhumerus -24.132 -3.27445 88.2962
lradius 15.3708
lwrist -9.46905
lhand -21.4714 -11.5957
lfingers 7.12502
lthumb 4.91921 18.3272
rfemur -24.5581 8.14068 19.0455
rtibia 9.45549
rfoot -20.8291 -8.3431
rtoes -32.8256
lfemur -24.5618 -8.02921 -19.3447
ltibia 8.86063
lfoot -9.14001 3.9803
ltoes -38.4691
25
root 8.98781 16.2592 31.3038 -153.355 -0.62778 179.08
lowerback -31.4071 -1.34496 -5.40655
upperback -2.29772 -0.740361 -0.510753
thorax 13.8297 -1.02856 1.97743
lowerneck 0.501129 -2.96119 -1.41057
upperneck -10.5599 -4.08165 5.27354
head -3.35523 -2.38501 2.11421
rclavicle -5.76476e-015 2.10712e-014
rhumerus -25.8863 -17.3569 -85.1488
rradius 20.7998
rwrist 6.21646
rhand -7.97856 -52.106
rfingers 7.12502
rthumb 17.9295 -81.2995
lclavicle -5.76476e-015 2.10712e-014
lhumerus -24.1822 -3.43157 88.3256
lradius 15.3514
lwrist -9.52844
lhand -22.0722 -11.8699
lfingers 7.12502
lthumb 4.33908 18.0656
rfemur -24.5127 8.01623 19.0276
rtibia 9.49284
rfoot -20.8378 -8.25443
rtoes -32.6627
lfemur -24.5262 -7.98266 -19.4181
ltibia 8.88489
lfoot -9.08612 3.94532
ltoes -38.6866
26
root 8.98882 16.2584 31.3029 -153.335 -0.654224 179.058
lowerback -31.4355 -1.35977 -5.43968
upperback -2.29555 -0.747332 -0.508904
thorax 13.8448 -1.03434 1.99377
lowerneck 0.455352 -2.95018 -1.39323
upperneck -10.553 -4.06881 5.26455
head -3.34511 -2.37914 2.10625
rclavicle 8.59744e-015 8.34896e-015
rhumerus -25.8859 -17.4745 -85.0888
rradius 20.7626
rwrist 6.38877
rhand -7.72067 -52.0462
rfingers 7.12502
rthumb 18.1776 -81.2168
lclavicle 8.59744e-015 8.34896e-015
lhumerus -24.213 -3.57554 88.3569
lradius 15.3709
lwrist -9.49334
lhand -22.0062 -11.7833
lfingers 7.12502
lthumb 4.40279 18.1509
rfemur -24.5621 8.08048 18.9811
rtibia 9.53058
rfoot -20.8924 -8.26053
rtoes -32.1639
lfemur -24.571 -7.81746 -19.4649
ltibia 8.90744
lfoot -9.12529 3.81025
ltoes -38.8101
27
root 8.98805 16.2586 31.3 -153.363 -0.73802 179.15
lowerback -31.4563 -1.35151 -5.32275
upperback -2.26886 -0.774353 -0.467494
thorax 13.8883 -1.03903 1.9649
lowerneck 0.396818 -2.92976 -1.42208
upperneck -10.529 -4.04426 5.24796
head -3.32644 -2.36438 2.10271
rclavicle 3.32964e-015 -2.42517e-014
rhumerus -25.8799 -17.4849 -85.044
rradius 20.7586
rwrist 6.51843
rhand -7.45771 -52.0665
rfingers 7.12502
rthumb 18.4306 -81.2134
lclavicle 3.32964e-015 -2.42517e-014
lhumerus -24.1691 -3.35392 88.308
lradius 15.2887
lwrist -9.75648
lhand -21.8468 -11.6454
lfingers 7.12502
lthumb 4.55667 18.2856
rfemur -24.5183 8.04199 19.1154
rtibia 9.54864
rfoot -20.9642 -8.22697
rtoes -31.9777
lfemur -24.5322 -7.91618 -19.316
ltibia 8.90695
lfoot -9.22625 3.88673
ltoes -38.519
28
root 8.98973 16.2573 31.2984 -153.296 -0.773347 179.246
lowerback -31.5713 -1.34347 -5.23174
upperback -2.28045 -0.800107 -0.436225
thorax 13.9273 -1.04914 1.93671
lowerneck 0.39035 -2.91198 -1.46092
upperneck -10.4639 -4.01633 5.27266
head -3.30272 -2.34716 2.11487
rclavicle -1.3418e-015 8.34896e-015
rhumerus -25.9257 -17.4807 -85.039
rradius 20.7759
rwrist 6.66981
rhand -7.38684 -52.1538
rfingers 7.12502
rthumb 18.4987 -81.2942
lclavicle -1.3418e-015 8.34896e-015
lhumerus -24.1992 -3.3448 88.293
lradius 15.2609
lwrist -9.75256
lhand -22.4303 -11.5417
lfingers 7.12502
lthumb 3.99321 18.4006
rfemur -24.5981 8.05269 19.2538
rtibia 9.59187
rfoot -20.9901 -8.28177
rtoes -32.1918
lfemur -24.5137 -8.3628 -19.0578
ltibia 8.68668
lfoot -9.11619 4.36827
ltoes -38.6874
29
root 8.99301 16.2556 31.2955 -153.279 -0.793929 179.257
lowerback -31.6409 -1.3598 -5.24472
upperback -2.2689 -0.813487 -0.435042
thorax 13.9716 -1.05739 1.93792
lowerneck 0.346848 -2.90755 -1.46451
upperneck -10.4089 -4.0076 5.30845
head -3.27519 -2.34244 2.12422
rclavicle -7.40473e-015 1.19271e-015
rhumerus -25.8958 -17.6673 -85.012
rradius 20.6979
rwrist 6.88746
rhand -7.35413 -52.1704
rfingers 7.12502
rthumb 18.5302 -81.3078
lclavicle -7.40473e-015 1.19271e-015
lhumerus -24.2628 -3.55174 88.3153
lradius 15.2894
lwrist -9.61323
lhand -22.7906 -11.4506
lfingers 7.12502
lthumb 3.64533 18.4979
rfemur -24.5823 8.30729 19.2243
rtibia 9.48761
rfoot -20.8792 -8.55003
rtoes -32.2252
lfemur -24.5696 -8.20768 -19.0633
ltibia 8.78896
lfoot -9.07271 4.23842
ltoes -39.3551
30
root 8.99463 16.2564 31.2908 -153.414 -0.837768 179.195
lowerback -31.5644 -1.40518 -5.33043
upperback -2.20993 -0.83032 -0.43011
thorax 14.0085 -1.06536 1.9849
lowerneck 0.316982 -2.93556 -1.43909
upperneck -10.4977 -4.04857 5.35938
head -3.29832 -2.37079 2.13977
rclavicle 4.17448e-015 6.75868e-015
rhumerus -25.8044 -17.8095 -84.9684
rradius 20.6116
rwrist 6.99246
rhand -7.3438 -52.1047
rfingers 7.12502
rthumb 18.5401 -81.2412
lclavicle 4.17448e-015 6.75868e-015
lhumerus -24.2622 -3.59342 88.3233
lradius 15.2901
lwrist -9.631
lhand -22.6461 -11.2388
lfingers 7.12502
lthumb 3.78486 18.7073
rfemur -24.337 8.39375 19.1511
rtibia 9.33264
rfoot -20.786 -8.67839
rtoes -32.0415
lfemur -24.3711 -8.35169 -19.1169
ltibia 8.74237
lfoot -9.10558 4.2499
ltoes -39.1781
